<?xml version="1.0" encoding="utf-8"?>
<!-- Generator: Adobe Illustrator 16.0.0, SVG Export Plug-In . SVG Version: 6.00 Build 0)  -->
<!DOCTYPE svg PUBLIC "-//W3C//DTD SVG 1.1//EN" "http://www.w3.org/Graphics/SVG/1.1/DTD/svg11.dtd">
<svg version="1.1" id="Layer_1" xmlns="http://www.w3.org/2000/svg" xmlns:xlink="http://www.w3.org/1999/xlink" x="0px" y="0px"
	 width="176.338px" height="163.764px" viewBox="0 0 176.338 163.764" enable-background="new 0 0 176.338 163.764"
	 xml:space="preserve">
<g>
	<defs>
		<rect id="SVGID_1_" width="176.338" height="163.764"/>
	</defs>
	<clipPath id="SVGID_2_">
		<use xlink:href="#SVGID_1_"  overflow="visible"/>
	</clipPath>
	<path clip-path="url(#SVGID_2_)" d="M82.41,159.486c0,2.364,1.908,4.278,4.272,4.278c2.364,0,4.272-1.914,4.272-4.278V4.29
		c0-2.37-1.908-4.29-4.272-4.29c-2.37,0-4.272,1.92-4.272,4.29V159.486z"/>
	<path clip-path="url(#SVGID_2_)" d="M32.532,11.628c10.226,0,18.516,8.29,18.516,18.516S42.758,48.66,32.532,48.66
		c-10.226,0-18.516-8.29-18.516-18.516S22.306,11.628,32.532,11.628"/>
	<path clip-path="url(#SVGID_2_)" d="M140.058,11.634c10.224,0,18.511,8.287,18.511,18.51c0,10.223-8.287,18.51-18.511,18.51
		c-10.223,0-18.51-8.287-18.51-18.51C121.548,19.921,129.835,11.634,140.058,11.634"/>
	<path clip-path="url(#SVGID_2_)" d="M65.07,95.623c0,11.945-9.756,21.701-21.702,21.701h-21.66C9.762,117.324,0,107.568,0,95.623
		V76.566C0,64.62,9.762,54.84,21.708,54.84h21.66c11.946,0,21.702,9.78,21.702,21.726V95.623z"/>
	<path clip-path="url(#SVGID_2_)" d="M175.998,101.154c2.124,11.754-5.934,21.427-17.862,21.492l-37.158,0.174
		c-11.928,0.061-19.92-9.498-17.76-21.252l4.368-23.622c2.166-11.742,13.71-21.348,25.645-21.348h13.067
		c11.935,0,23.43,9.606,25.542,21.366L175.998,101.154z"/>
	<path clip-path="url(#SVGID_2_)" d="M48.822,145.68c0,7.806-6.396,14.196-14.208,14.196h-4.152
		c-7.812,0-14.202-6.385-14.202-14.196v-23.034c0-7.817,6.39-14.208,14.202-14.208h4.152c7.812,0,14.208,6.391,14.208,14.208V145.68
		z"/>
	<path clip-path="url(#SVGID_2_)" d="M156.33,145.896c0,7.818-6.396,14.202-14.214,14.202h-4.128
		c-7.818,0-14.214-6.384-14.214-14.202v-19.59c0-7.818,6.396-14.208,14.214-14.208h4.128c7.817,0,14.214,6.39,14.214,14.208V145.896
		z"/>
</g>
</svg>
