<?xml version="1.0" encoding="utf-8"?>
<!-- Generator: Adobe Illustrator 16.0.0, SVG Export Plug-In . SVG Version: 6.00 Build 0)  -->
<!DOCTYPE svg PUBLIC "-//W3C//DTD SVG 1.1//EN" "http://www.w3.org/Graphics/SVG/1.1/DTD/svg11.dtd">
<svg version="1.1" id="Layer_1" xmlns="http://www.w3.org/2000/svg" xmlns:xlink="http://www.w3.org/1999/xlink" x="0px" y="0px"
	 width="593.262px" height="593.262px" viewBox="0 0 593.262 593.262" enable-background="new 0 0 593.262 593.262"
	 xml:space="preserve">
<g>
	<defs>
		<rect id="SVGID_1_" width="593.262" height="593.262"/>
	</defs>
	<clipPath id="SVGID_2_">
		<use xlink:href="#SVGID_1_"  overflow="visible"/>
	</clipPath>
	<path clip-path="url(#SVGID_2_)" d="M296.634,0C133.068,0,0,133.068,0,296.634c0,163.56,133.068,296.628,296.634,296.628
		c163.566,0,296.628-133.068,296.628-296.628C593.262,133.068,460.2,0,296.634,0 M405.048,546.714l-17.904-5.568l-24-4.002
		l-43.5,10.002l-12,7.998h-22.001l-13.506,0.504l-14.496-6.504l-9-12l-10.68-3l1.68,11.502l-7.998,12.498l-27-13.998l-8.586,5.809
		C95.376,509.844,24,411.444,24,296.634c0-15.81,1.428-31.278,4.02-46.362l23.622,7.872l16.002,10.002l4.998,10.554l9,17.928
		l16.002,7.518l-34.998,15l-1.002,46.998l4.368,21l18.636,11.004l10.998,15.996l28.998,52.002l12.462,34.002l25.542,24.996l22.002,9
		l6-9.996l-9-19.002l1.68-33l5.322-19.998l31.998-15l-9-23.004c0,0,13.002-24.996,12-30.996s18-15,18-15l9.27-4.212l6.732-16.788
		l-3.252-12.576l-11.748-3.426l-28.998-34.518L187.656,278.7l-67.002-4.554l-13.002,12l-13.998,1.002l1.998-13.002l-1.998-9
		l6-13.998l9.318-5.928l-5.322-8.07H83.652c0,0-10.002-16.002-16.998-24c-6.996-7.998,28.998-58.002,28.998-58.002l36-1.002
		l5.46,19.998l9.54,10.002l13.998,4.998l-9-24v-15l11.502-18l12.498-21v-6v-12l12-6l22.002-4.998l3.546-11.412
		c0,0-4.8-10.608-2.544-12.588c2.256-1.979,3.132-16.002,12.27-23.004c0.606-0.462,1.08-0.912,1.47-1.35
		c9.336-2.574,18.858-4.68,28.566-6.252l-5.304,9.6v13.998h18l9-10.998l21.99-7.002l-0.505-9.132
		c0.156,0.006,0.324-0.006,0.492-0.006c16.566,0,32.754,1.566,48.51,4.41l-11.01,3.99l18.769,7.374l20.861,4.188l10.878,7.188
		l2.005,19.998l24.995,16.002l20.4,3.492l-8.4,11.508l-16.998,7.998l-10.002,10.002l3,13.002l25.86,8.958l13.14-4.956l17.616-6
		l9.384-13.998l14.005,9l-5.005,13.998l27.498,4.002l21.504,13.998v6l-21.504-19.998l-34.493-1.998l-32.005,1.002l-21,10.998
		l-21,10.002l-21.995,18l-9,25.002l9,15l5.796,16.626l-11.796,13.518l9.995,18.852l28.002,13.998l21,16.998l31.62,4.002
		l20.383,4.003l18-4.003l9,15l0.995,13.998l-6.995,24l6.497,10.002l-22.5,30v19.998l-9.611,31.614l-11.389,16.386l12.624,15
		l16.896-0.155l6.378-5.845l4.656,0.408C474.858,506.478,442.092,530.598,405.048,546.714"/>
</g>
</svg>
