<?xml version="1.0" encoding="utf-8"?>
<!-- Generator: Adobe Illustrator 16.0.0, SVG Export Plug-In . SVG Version: 6.00 Build 0)  -->
<!DOCTYPE svg PUBLIC "-//W3C//DTD SVG 1.1//EN" "http://www.w3.org/Graphics/SVG/1.1/DTD/svg11.dtd">
<svg version="1.1" id="Layer_1" xmlns="http://www.w3.org/2000/svg" xmlns:xlink="http://www.w3.org/1999/xlink" x="0px" y="0px"
	 width="599.87px" height="588px" viewBox="0 0 599.87 588" enable-background="new 0 0 599.87 588" xml:space="preserve">
<g>
	<defs>
		<rect id="SVGID_1_" width="599.87" height="588"/>
	</defs>
	<clipPath id="SVGID_2_">
		<use xlink:href="#SVGID_1_"  overflow="visible"/>
	</clipPath>
	<path clip-path="url(#SVGID_2_)" d="M351.448,387.798c0.588-0.294,1.332-0.582,1.656-0.857
		c38.952-16.051,74.844-48.343,100.35-90.03C686.944,152.424,589.727,38.136,511.96,58.392C516.46,23.814,518.86,0,518.86,0H81.136
		c0,0,2.31,23.814,6.822,58.392C10.186,38.136-87.11,151.884,146.374,296.37c25.506,41.688,61.23,74.25,100.182,90.3
		c0.33,0.276,1.344,0.702,1.938,0.996c20.838,10.422,21.444,31.398,21.444,31.398v52.115c0,83.37-84.582,80.82-84.582,80.82h-11.418
		v36h252v-36h-11.298c0,0-84.702,2.55-84.702-80.826v-52.116C329.938,419.064,330.599,398.22,351.448,387.798 M473.506,257.19
		c5.988-14.898,10.866-30.438,14.088-46.566c8.143-40.74,14.742-81.918,19.746-116.826
		C574.006,80.934,614.854,141.192,473.506,257.19 M92.662,93.798c4.998,34.902,11.598,76.086,19.746,116.826
		c3.228,16.128,8.106,31.662,14.094,46.566C-14.864,141.192,25.99,80.934,92.662,93.798"/>
</g>
</svg>
