<?xml version="1.0" encoding="utf-8"?>
<!-- Generator: Adobe Illustrator 16.0.0, SVG Export Plug-In . SVG Version: 6.00 Build 0)  -->
<!DOCTYPE svg PUBLIC "-//W3C//DTD SVG 1.1//EN" "http://www.w3.org/Graphics/SVG/1.1/DTD/svg11.dtd">
<svg version="1.1" id="Layer_1" xmlns="http://www.w3.org/2000/svg" xmlns:xlink="http://www.w3.org/1999/xlink" x="0px" y="0px"
	 width="563.2px" height="640px" viewBox="0 0 563.2 640" enable-background="new 0 0 563.2 640" xml:space="preserve">
<g>
	<defs>
		<rect id="SVGID_1_" width="563.2" height="640"/>
	</defs>
	<clipPath id="SVGID_2_">
		<use xlink:href="#SVGID_1_"  overflow="visible"/>
	</clipPath>
	<path clip-path="url(#SVGID_2_)" d="M0,204.8v383.398C0,616.813,22.925,640,51.2,640H512c28.275,0,51.2-23.187,51.2-51.802V204.8H0
		z M140.8,601.6H38.4V499.2h102.4V601.6z M140.8,473.6H38.4V371.2h102.4V473.6z M140.8,345.6H38.4V243.2h102.4V345.6z M268.8,601.6
		H166.4V499.2h102.4V601.6z M268.8,473.6H166.4V371.2h102.4V473.6z M268.8,345.6H166.4V243.2h102.4V345.6z M396.8,601.6H294.4V499.2
		H396.8V601.6z M396.8,473.6H294.4V371.2H396.8V473.6z M396.8,345.6H294.4V243.2H396.8V345.6z M524.8,601.6H422.4V499.2H524.8V601.6
		z M524.8,473.6H422.4V371.2H524.8V473.6z M524.8,345.6H422.4V243.2H524.8V345.6z"/>
	<path clip-path="url(#SVGID_2_)" d="M512,76.8h-83.2V19.2c0-10.605-8.602-19.2-19.2-19.2C398.995,0,390.4,8.595,390.4,19.2v57.6
		H172.8V19.2c0-10.605-8.602-19.2-19.2-19.2c-10.605,0-19.2,8.595-19.2,19.2v57.6H51.2C22.925,76.8,0,99.987,0,128.595V172.8v6.4
		h563.2v-6.4v-44.205C563.2,99.987,540.275,76.8,512,76.8 M153.6,166.4c-21.203,0-38.4-17.197-38.4-38.4
		c0-14.202,7.738-26.573,19.2-33.216V128c0,10.605,8.595,19.2,19.2,19.2c10.598,0,19.2-8.595,19.2-19.2V94.778
		c11.469,6.643,19.2,19.02,19.2,33.222C192,149.203,174.81,166.4,153.6,166.4 M409.6,166.4c-21.202,0-38.399-17.197-38.399-38.4
		c0-14.202,7.737-26.573,19.2-33.216V128c0,10.605,8.595,19.2,19.199,19.2c10.599,0,19.2-8.595,19.2-19.2V94.778
		c11.469,6.643,19.2,19.02,19.2,33.222C448,149.203,430.81,166.4,409.6,166.4"/>
</g>
</svg>
